<svg xmlns="http://www.w3.org/2000/svg" width="240" height="240" viewBox="0 0 240 240" role="img" aria-label="Gold Khmer ornamental floral corner">
  <defs>
    <linearGradient id="gold" x1="0%" x2="100%" y1="0%" y2="100%">
      <stop offset="0%" stop-color="#fff0aa"/>
      <stop offset="45%" stop-color="#c89b3c"/>
      <stop offset="100%" stop-color="#7a4a18"/>
    </linearGradient>
  </defs>
  <path d="M26 212C30 118 118 30 212 26" fill="none" stroke="url(#gold)" stroke-width="7" stroke-linecap="round"/>
  <path d="M52 198C62 138 138 62 198 52" fill="none" stroke="url(#gold)" stroke-width="3" stroke-linecap="round" opacity=".72"/>
  <path d="M28 154C72 158 98 132 92 90C134 98 160 72 154 28" fill="none" stroke="url(#gold)" stroke-width="5" stroke-linecap="round"/>
  <path d="M72 194C82 158 106 136 142 128C134 166 110 188 72 194Z" fill="#d8ad52" opacity=".72"/>
  <path d="M128 142C136 106 158 82 194 72C188 110 166 134 128 142Z" fill="#f0d17b" opacity=".8"/>
  <circle cx="34" cy="206" r="6" fill="#c89b3c"/>
  <circle cx="206" cy="34" r="6" fill="#c89b3c"/>
</svg>
